<svg width="64" height="64" viewBox="0 0 64 64" fill="none" xmlns="http://www.w3.org/2000/svg">
<g id="emojione-v1:waving-hand">
<path id="Vector" d="M22.0499 31.1L23.2549 32.764C23.8319 33.571 24.4239 34.362 25.0089 35.141L25.1489 35.329C25.2239 35.278 25.2979 35.227 25.3679 35.174L29.1489 32.924L28.0169 30.876C25.8159 26.898 23.6179 22.921 21.4069 18.951C21.2008 18.5685 20.9493 18.2123 20.6579 17.89C20.28 17.463 19.7875 17.1534 19.2389 16.998C18.0519 16.668 16.7439 17.114 15.8279 18.163C14.7639 19.375 14.7429 20.899 15.7649 22.342C17.8439 25.27 19.9489 28.183 22.0499 31.1ZM30.7289 28.14L32.3599 31.526L32.8429 31.354C33.6079 31.035 34.3639 30.709 35.0839 30.391L36.4379 29.913L35.8039 27.752C35.1269 25.426 34.4569 23.13 33.7359 20.852C32.9119 18.21 32.0169 15.415 30.9079 12.727C30.7333 12.2841 30.4574 11.8882 30.1023 11.5711C29.7472 11.254 29.3227 11.0245 28.8629 10.901C28.0249 10.667 27.0739 10.755 26.1809 11.151C25.2979 11.547 24.6809 12.161 24.4029 12.911C24.1289 13.659 24.2069 14.522 24.6259 15.404C26.6459 19.654 28.6879 23.897 30.7289 28.14ZM63.4999 28.942C63.0829 28.174 62.0729 27.759 60.8649 27.875C58.1799 28.135 56.2209 29.458 55.0519 31.819C54.7199 32.477 54.4279 33.147 54.1319 33.814C53.7159 34.757 53.2969 35.697 52.8069 36.602C52.2619 37.581 51.4909 38.512 50.5749 39.303C50.2879 39.548 49.4269 40.288 48.4069 40.005C47.6599 39.802 47.2319 39.158 46.9719 38.691C46.7039 38.215 46.4259 37.691 46.2919 37.088L46.2079 36.706C45.7899 34.831 45.3739 32.952 44.9579 31.074L41.9379 32.037C36.1219 33.88 29.4339 36.363 23.9409 40.808L20.6289 43.478C20.8799 43.758 21.1359 44.037 21.3909 44.313C21.8604 44.8525 22.2164 45.481 22.4379 46.161C23.6599 49.684 25.2039 53.373 28.1079 56.398C30.3689 58.752 32.7859 59.836 35.6779 59.786C37.8609 59.747 39.9629 59.084 42.7079 57.579C43.0709 57.38 43.7969 57.049 44.6039 57.054C47.3269 57.054 49.4419 56.039 51.0659 53.962C52.8249 51.689 53.7569 49.082 53.8319 46.228C53.9229 42.376 55.7149 38.993 59.3029 35.881L60.0219 35.277C60.7509 34.666 61.4419 34.088 61.9689 33.445C62.7639 32.466 63.3249 31.497 63.5899 30.641C63.7899 30 63.7569 29.413 63.4999 28.942ZM21.0999 36.441C19.2979 34.16 17.4879 31.867 15.6689 29.585C15.5239 29.41 15.2519 29.22 15.0609 29.09C14.7372 28.8741 14.3829 28.7079 14.0099 28.597C13.4819 28.451 12.9869 28.486 12.4549 28.708C11.4879 29.112 10.9559 29.798 10.7769 30.874C10.5859 32.011 10.9799 33.007 12.0939 34.217L13.9969 36.275C15.7869 38.216 17.5759 40.154 19.3549 42.097L22.3319 38.002L21.0999 36.441ZM38.8069 25.505C39.1219 26.599 39.5689 28.177 39.9069 29.251H44.5389C44.1219 27.255 43.7049 25.347 43.3039 23.413C42.9639 21.76 42.6759 20.074 42.3859 18.416C42.1869 17.27 41.9859 16.108 41.7679 14.961C41.5339 13.732 40.9229 12.869 39.8999 12.342C39.7017 12.2366 39.4924 12.1534 39.2759 12.094C38.4739 11.87 37.6479 11.987 37.0049 12.435C36.4109 12.848 36.0539 13.491 35.9949 14.24C35.9518 14.8114 36.0004 15.386 36.1389 15.942C37.0044 19.1363 37.8937 22.324 38.8069 25.505Z" fill="#EFB086"/>
<path id="Vector_2" d="M46.3801 21.13C47.4431 15.643 46.2731 10.382 42.4961 6.185C41.5791 5.162 42.9841 3.52 43.9141 4.554C48.2121 9.333 49.7211 15.238 48.5051 21.529C48.2401 22.896 46.1191 22.5 46.3801 21.13ZM54.4901 23.579C55.3891 16.118 53.3211 9.175 47.8471 3.902C46.5201 2.62 48.2461 0.281996 49.5961 1.58C55.8201 7.58 58.4071 15.359 57.3811 23.916C57.1531 25.782 54.2711 25.442 54.4901 23.579ZM15.1761 42.69C10.8971 40.027 8.13606 36.028 7.68106 30.957C7.56606 29.722 5.62106 29.645 5.73006 30.893C6.25606 36.667 9.23006 41.284 14.1371 44.336C15.2041 44.998 16.2421 43.357 15.1761 42.69ZM11.8191 49.552C6.33606 45.568 3.01506 39.943 2.88406 33.093C2.85506 31.429 0.24906 31.137 0.28006 32.824C0.43006 40.616 3.98406 47.099 10.2681 51.668C11.6421 52.658 13.1841 50.549 11.8191 49.552Z" fill="#28A6DE"/>
</g>
</svg>
